Coordinates
version=1
nRows=13
nColumns=22
inDegrees=yes

Units are S.I. units (second, meters, Newtons, ...)
If the header above contains a line with 'inDegrees', this indicates whether rotational values are in degrees (yes) or radians (no).

endheader
time	pelvis_tilt	pelvis_list	pelvis_rotation	pelvis_tx	pelvis_ty	pelvis_tz	hip_flexion_r	hip_adduction_r	hip_rotation_r	knee_angle_r	ankle_angle_r	subtalar_angle_r	hip_flexion_l	hip_adduction_l	hip_rotation_l	knee_angle_l	ankle_angle_l	subtalar_angle_l	lumbar_extension	lumbar_bending	lumbar_rotation
      2.47000000	      3.21328235	     -6.17732729	     -6.66618518	     -0.10732888	      0.93614866	      0.02871783	      0.50548647	      9.43826500	     -2.80768511	    -21.53156930	     14.64425393	     -4.62995504	     27.87446275	    -10.65215795	     -1.75726847	    -72.49710418	      7.85750750	     -4.60942248	    -14.88496933	      1.60170450	      2.63589696
      2.48000000	      3.10370452	     -6.31525936	     -6.94442151	     -0.11378224	      0.93595949	      0.02932542	      0.96894441	      9.66390838	     -2.73384311	    -21.41429129	     14.49893554	     -4.91695684	     26.67543094	    -10.98809175	     -1.86731244	    -73.35104539	      7.53188612	     -4.02413650	    -14.62165701	      1.72699309	      2.42393786
      2.49000000	      2.97115322	     -6.48420595	     -7.21710731	     -0.12025105	      0.93558926	      0.02986449	      1.48384072	      9.92897740	     -2.62720019	    -21.35360631	     14.32944497	     -5.11166978	     25.40508697	    -11.35362207	     -2.02937169	    -74.00630819	      7.20057924	     -3.49502166	    -14.33521557	      1.90655639	      2.18627076
      2.50000000	      2.83095947	     -6.66453891	     -7.45886929	     -0.12674338	      0.93506745	      0.03029037	      2.06531825	     10.19441668	     -2.60851978	    -21.39720581	     14.18211381	     -5.29377671	     24.06233593	    -11.71408787	     -2.22993799	    -74.45870549	      6.84529199	     -2.82625311	    -14.04254671	      2.11613973	      1.92256838
      2.51000000	      2.67973474	     -6.86339478	     -7.67742345	     -0.13328412	      0.93441960	      0.03061054	      2.71258587	     10.47687955	     -2.60071814	    -21.53401597	     14.01829512	     -5.41840689	     22.65705318	    -12.07688165	     -2.47306275	    -74.70976057	      6.50581102	     -2.17496465	    -13.74503053	      2.36539160	      1.62537141
      2.52000000	      2.52238349	     -7.07129448	     -7.86446325	     -0.13987456	      0.93367444	      0.03081395	      3.42654004	     10.76220178	     -2.62628797	    -21.76966322	     13.83769632	     -5.48924465	     21.19464072	    -12.42600241	     -2.75317208	    -74.75723308	      6.16303402	     -1.53137243	    -13.44523881	      2.64050494	      1.29199688
      2.53000000	      2.36060872	     -7.28123821	     -8.01889910	     -0.14651136	      0.93285794	      0.03090234	      4.19995368	     11.04196721	     -2.68763512	    -22.09017486	     13.63689911	     -5.50652853	     19.68089668	    -12.75178279	     -3.06947885	    -74.59935617	      5.81967504	     -0.93122801	    -13.14229757	      2.93090348	      0.92331674
      2.54000000	      2.20040133	     -7.48282521	     -8.13689938	     -0.15319978	      0.93199388	      0.03086239	      5.01951981	     11.30334098	     -2.78445926	    -22.47759669	     13.41643302	     -5.48413806	     18.12264892	    -13.03844361	     -3.41721146	    -74.24052609	      5.47149579	     -0.35467481	    -12.83855113	      3.22480868	      0.51380567
      2.55000000	      2.04342913	     -7.66831463	     -8.21678140	     -0.15993450	      0.93110522	      0.03069654	      5.87457557	     11.53874418	     -2.91820936	    -22.91509316	     13.17162624	     -5.44201918	     16.52510577	    -13.27023949	     -3.78616353	    -73.67584955	      5.11684871	      0.21181897	    -12.53342716	      3.50979032	      0.05573402
      2.56000000	      1.89707516	     -7.83075404	     -8.25651501	     -0.16674026	      0.93021262	      0.03040096	      6.74536504	     11.74139462	     -3.07793400	    -23.37459549	     12.91534558	     -5.39668061	     14.89764094	    -13.43943102	     -4.16945830	    -72.91712672	      4.76345713	      0.79156198	    -12.23481535	      3.77632935	     -0.44800409
      2.57000000	      1.75985443	     -7.96863126	     -8.25313930	     -0.17362222	      0.92933174	      0.02997237	      7.62044477	     11.90982256	     -3.26444609	    -23.83116395	     12.63757427	     -5.36486011	     13.25400862	    -13.54383750	     -4.55578740	    -71.96917530	      4.42454139	      1.39888336	    -11.94119307	      4.02095229	     -1.00410744
      2.58000000	      1.63620683	     -8.07532094	     -8.20987339	     -0.18059493	      0.92848547	      0.02942077	      8.48202944	     12.03863471	     -3.46289360	    -24.25873982	     12.35039204	     -5.35765146	     11.59753007	    -13.57624936	     -4.94082531	    -70.83293162	      4.11405343	      1.99341655	    -11.65719190	      4.23215878	     -1.60963510
      2.59000000	      1.52536203	     -8.14270330	     -8.11411273	     -0.18768324	      0.92768407	      0.02871912	      9.32640588	     12.12077458	     -3.65471792	    -24.64341443	     12.03303265	     -5.38328851	      9.94971651	    -13.52332042	     -5.29813460	    -69.51992980	      3.85659392	      2.51690317	    -11.38247273	      4.40283149	     -2.28818719
